<?xml version="1.0" encoding="utf-8"?>
<!-- Generator: Adobe Illustrator 28.1.0, SVG Export Plug-In . SVG Version: 6.00 Build 0)  -->
<svg version="1.1" id="star" xmlns="http://www.w3.org/2000/svg" xmlns:xlink="http://www.w3.org/1999/xlink" x="0px" y="0px"
	 viewBox="0 0 134 162.2" style="enable-background:new 0 0 134 162.2;" xml:space="preserve">
<style type="text/css">
	.st0{fill:#231F20;stroke:#231F20;stroke-width:2;stroke-miterlimit:10;}
	.st1{fill:#231F20;}
	.st2{fill:#D677B0;stroke:#231F20;stroke-width:2;stroke-miterlimit:10;}

  #star{
      transition: all 0.5s ease;
  }

  #star:hover .st1 {
    fill: red;
  }

   #star:hover .st2 {
    fill: black;
  }
</style>
<defs>
	<script>const vectorGraphic = document.querySelector(&apos;#star&apos;);

function logThisId(){
    console.log(this);
    console.log(&apos;AHHHHHHHHHHHH&apos;);
}

vectorGraphic.addEventListener(&apos;click&apos;, logThisId);
		</script>
</defs>
<g id="STAR">
	<path class="st0" d="M50.7,7.2c-0.1-1.5-0.3-2.7-0.7-3.3C49.3,2.6,49.7,4.2,50.7,7.2z"/>
	<path class="st0" d="M5.7,30.1C4.5,29,3.6,28.4,3,28.5L5.7,30.1z"/>
	<path class="st1" d="M75.3,69.9c0.1-3.2-0.5-6.7-1.9-10.2c-1.7-4.3-4.2-7.8-7.1-10.3c-0.1,0-0.1,0-0.2,0c-0.4,0-0.9,0-1.3,0
		c-0.1,0-0.2,0-0.2,0c-0.5,0-0.9,0.1-1.3,0.1c0,0-0.1,0-0.1,0c-1,0.1-1.9,0.3-2.8,0.4c-0.1,0-0.1,0-0.2,0c-0.4,0.1-0.7,0.2-1.1,0.3
		c-0.1,0-0.1,0-0.2,0.1c-0.4,0.1-0.8,0.2-1.1,0.3c0,0,0,0,0,0c-0.8,0.3-1.5,0.6-2.3,0.9c-0.1,0-0.1,0.1-0.2,0.1
		c-0.3,0.1-0.6,0.3-0.8,0.4c-0.1,0-0.1,0.1-0.2,0.1c-0.3,0.2-0.6,0.3-0.9,0.5c0,0,0,0-0.1,0c-0.3,0.2-0.6,0.4-0.9,0.6c0,0,0,0,0,0
		c-0.3,0.2-0.6,0.4-0.8,0.6c-0.1,0.1-0.1,0.1-0.2,0.1c-0.2,0.2-0.4,0.4-0.7,0.5c-0.1,0.1-0.1,0.1-0.2,0.2c-0.2,0.2-0.5,0.4-0.7,0.7
		c0,0,0,0,0,0c-0.3,0.2-0.5,0.5-0.8,0.8c0,0,0,0-0.1,0.1c-0.2,0.2-0.4,0.5-0.6,0.7c0,0,0,0-0.1,0.1c-0.3,3.5,0.2,7.5,1.8,11.5
		c1.5,4,3.8,7.3,6.4,9.7c0.6,0,1.1,0,1.6,0c0,0,0.1,0,0.1,0c0.5,0,1-0.1,1.4-0.1c0.1,0,0.1,0,0.2,0c1.5-0.1,2.9-0.4,4.2-0.8
		c0.1,0,0.1,0,0.1,0c1.3-0.4,2.5-0.8,3.6-1.4c0,0,0.1,0,0.1-0.1c0.4-0.2,0.7-0.4,1.1-0.6c0,0,0,0,0,0c0.7-0.4,1.4-0.9,2.1-1.4
		c0,0,0,0,0.1,0c0.3-0.2,0.6-0.5,0.9-0.7c0,0,0,0,0,0c0.9-0.8,1.8-1.6,2.5-2.5c0,0,0,0,0,0C74.8,70.5,75,70.2,75.3,69.9L75.3,69.9z
		 M66.6,75.1c-2,0.9-5.8-3.4-8.5-9.6s-3.2-11.9-1.2-12.7s5.8,3.4,8.5,9.6S68.6,74.2,66.6,75.1z"/>
	<path class="st2" d="M85.4,61.7l16.1-61.5c-1.6,6.9-33.5,44.5-35.3,44.5c-1.4,0-12-27.3-15.4-37.5c0.6,11.8-6.6,46.9-6.6,46.9
		l-38.4-24c7.4,6.9,25.8,33.5,33.2,44.4c1.9,2.9,3.1,4.6,3.1,4.6c3.4,4.1,21.3,76.1,21.3,76.1l3.4-77.7c14-4.4,66.5,29.6,66.5,29.6
		S85.4,61.7,85.4,61.7z M72,73.3C72,73.3,72,73.3,72,73.3c-0.3,0.3-0.6,0.5-0.9,0.8c0,0,0,0-0.1,0c-0.6,0.5-1.3,0.9-2.1,1.4
		c0,0,0,0,0,0c-0.3,0.2-0.7,0.4-1.1,0.6c0,0-0.1,0-0.1,0.1c-1.1,0.6-2.3,1-3.6,1.4c-0.1,0-0.1,0-0.1,0c-1.3,0.4-2.7,0.6-4.2,0.8
		c-0.1,0-0.1,0-0.2,0c-0.5,0-0.9,0.1-1.4,0.1c0,0-0.1,0-0.1,0c-4.7,0.2-10.2-0.8-16.8-3.4c0,0,0.5-9.3,6.1-16.7
		c0.3-0.3,0.6-0.7,0.8-1.1l0,0c0,0,0,0,0.1-0.1c0.2-0.2,0.4-0.5,0.6-0.7c0,0,0,0,0.1-0.1c0.2-0.3,0.5-0.5,0.8-0.8c0,0,0,0,0,0
		c0.2-0.2,0.5-0.4,0.7-0.7c0.1-0.1,0.1-0.1,0.2-0.2c0.2-0.2,0.4-0.4,0.7-0.5c0.1-0.1,0.1-0.1,0.2-0.1c0.3-0.2,0.5-0.4,0.8-0.6
		c0,0,0,0,0,0c0.3-0.2,0.6-0.4,0.9-0.6c0,0,0,0,0.1,0c0.3-0.2,0.6-0.3,0.9-0.5c0.1,0,0.1-0.1,0.2-0.1c0.3-0.2,0.6-0.3,0.8-0.4
		c0.1,0,0.1-0.1,0.2-0.1c0.7-0.3,1.5-0.6,2.3-0.9c0,0,0,0,0,0c0.4-0.1,0.8-0.2,1.1-0.3c0.1,0,0.1,0,0.2-0.1c0.4-0.1,0.7-0.2,1.1-0.3
		c0.1,0,0.1,0,0.2,0c0.9-0.2,1.8-0.3,2.8-0.4c0,0,0.1,0,0.1,0c0.4-0.1,0.9-0.1,1.3-0.1c0.1,0,0.2,0,0.2,0c0.4,0,0.9,0,1.3,0
		c0.1,0,0.1,0,0.1,0l0,0c4.4,0,9.7,0.8,15.8,2.9c0,0-0.9,10.8-7.6,18.5c0,0,0,0,0,0C73.7,71.7,72.9,72.6,72,73.3L72,73.3z"/>
</g>
</svg>
