<?xml version="1.0" encoding="utf-8"?>
<!-- Generator: Adobe Illustrator 28.1.0, SVG Export Plug-In . SVG Version: 6.00 Build 0)  -->
<svg version="1.1" id="bottle" xmlns="http://www.w3.org/2000/svg" xmlns:xlink="http://www.w3.org/1999/xlink" x="0px" y="0px"
	 viewBox="0 0 62 213.8" style="enable-background:new 0 0 62 213.8;" xml:space="preserve">
<style type="text/css">
	.st0{fill:#67120D;stroke:#231F20;stroke-miterlimit:10;}
	.st1{fill:#997345;stroke:#231F20;stroke-width:0.5;stroke-miterlimit:10;}
	.st2{fill:#231F20;stroke:#231F20;stroke-miterlimit:10;}

  #bottle{
     transition: all 0.5s ease;
  }

  #bottle:hover .st1{
    transform: translateY(-30px);
  }
</style>
<defs>
	<script>const vectorGraphic = document.querySelector(&apos;#bottle&apos;);

function logThisId(){
    console.log(this);
    console.log(&apos;i took a drink&apos;);
}

vectorGraphic.addEventListener(&apos;click&apos;, logThisId);
		</script>
</defs>
<g id="BOTTLE">
	<path class="st0" d="M61.5,94.4c0-12.7-8-23.7-19.2-28.1V13.3c0-6.3-5.2-11.5-11.5-11.5l0,0c-6.3,0-11.5,5.2-11.5,11.5v53.1
		C8.3,71,0.5,81.8,0.5,94.4V204c0.1-0.1,0.2-0.1,0.2-0.2c0,0.1,0,0.1,0,0.2l0,0c0,0.2,0,0.4,0.1,0.6c0,0.1,0,0.1,0,0.1
		c0,0.1,0.1,0.3,0.1,0.4c0,0,0,0.1,0.1,0.1c0.2,0.4,0.4,0.8,0.7,1.1l0,0c3.5,4,15.2,6.9,29.2,6.9s25.8-2.9,29.2-6.9l0,0
		c0.3-0.4,0.6-0.8,0.7-1.1c0,0,0-0.1,0.1-0.1c0.1-0.1,0.1-0.3,0.1-0.4c0,0,0-0.1,0-0.1c0-0.2,0.1-0.4,0.1-0.6l0,0c0-0.1,0-0.1,0-0.2
		c0.1,0.1,0.2,0.1,0.2,0.2L61.5,94.4L61.5,94.4z"/>
	<path class="st1" d="M23.3,0.2h15.4c3.9,0,7.1,3.2,7.1,7.1v5.7c0,3.9-3.2,7.1-7.1,7.1H23.3c-3.9,0-7.1-3.2-7.1-7.1V7.4
		C16.2,3.4,19.3,0.2,23.3,0.2z"/>
	<path class="st2" d="M0.5,117.2c0,0,23.9,15,61,0v36.7c0,0-32.3,16.2-61,0C0.5,153.9,0.5,117.2,0.5,117.2z"/>
</g>
</svg>
