<?xml version="1.0" encoding="utf-8"?>
<!-- Generator: Adobe Illustrator 28.1.0, SVG Export Plug-In . SVG Version: 6.00 Build 0)  -->
<svg version="1.1" id="sword" xmlns="http://www.w3.org/2000/svg" xmlns:xlink="http://www.w3.org/1999/xlink" x="0px" y="0px"
	 viewBox="0 0 55.8 270.5" style="enable-background:new 0 0 55.8 270.5;" xml:space="preserve">
<style type="text/css">
	.st0{fill:#111B0F;}
	.st1{fill:#58595B;stroke:#231F20;stroke-width:0.75;stroke-miterlimit:10;}
	.st2{fill:none;stroke:#231F20;stroke-width:2;stroke-linecap:round;stroke-miterlimit:10;}
	.st3{fill:#232323;}
	.st4{fill:#231F20;}

      #sword:hover {
        animation: all 0.5s ease;
        transform-origin: center;
      }

      #sword:hover .st4{
        fill: blue;
      }
    </style>
<defs>
	<script>const vectorGraphic = document.querySelector(&apos;#sword&apos;);

function logThisId(){
    console.log(this);
    console.log(&apos;I like swords&apos;);
}

vectorGraphic.addEventListener(&apos;click&apos;, logThisId);
		</script>
</defs>
<g id="SWORD">
	<path class="st0" d="M27,259.8c2.3-1.4,3.9-4,3.9-6.9s-1.5-5.4-3.7-6.8c0.5-0.8,0.7-1.7,0.7-2.6c0-2.8-2.3-5.1-5.1-5.1
		s-5.1,2.3-5.1,5.1c0,1,0.3,1.8,0.7,2.6c-2.2,1.5-3.7,4-3.7,6.8s1.6,5.5,3.9,6.9c-1.2,1.1-2,2.7-2,4.5c0,3.4,2.8,6.2,6.2,6.2
		s6.2-2.8,6.2-6.2C29,262.5,28.2,260.9,27,259.8L27,259.8z"/>
	<path class="st1" d="M34.1,155.4c0,0,21.4-7.8,13.8-36c0,0-2.1-14,4.8-22.6s-1.8-18.9-6-23.3c0,0-3.7-15.6,1.4-20.9
		s10.3-19.3,5-36.2L52.5,0.8c0,0-3.7,3.4-5.7,13.3s-9.9,11.9-11.2,19.7s0,102.5,0,102.5s-0.2,4.8-4.6,4.6s-5.5,0.2-5.5,0.2v11.1
		L34.1,155.4L34.1,155.4z"/>
	<line class="st2" x1="40.4" y1="33.9" x2="40.4" y2="133.6"/>
	<path class="st3" d="M16,152.1c1.7-1.7,4-2.7,6.5-2.7h1.4c1.5,0.2,3.8,0.8,6,2.3V52.2l-14-10.9v110.9
		C15.9,152.2,15.9,152.1,16,152.1L16,152.1z"/>
	<path class="st4" d="M42.5,205.8H32.1c-0.3-1.1-0.6-2.1-0.9-3c-0.2-0.5-0.4-1.2-0.7-2.1h10.5c1.4,0,2.8-1,3-2.4
		c0.4-1.9-1.1-3.6-2.9-3.6H29.4l0,0c-0.1-2,0-3.8,0.2-5.5h5.7c1.7,0,3.2-1.1,3.6-2.8c0.5-2.3-1.3-4.3-3.5-4.3h-4
		c0.1-0.4,0.2-0.8,0.4-1.3c1.1-3.7,2.5-9.2,4-16.2c0.1-0.7,0.8-9.1-5.2-13.8c-2.4-1.9-4.9-2.5-6.5-2.7h-1.4c-2.5,0-4.8,1-6.5,2.7
		c-2.6,2.6-2.7,5.9-2.7,6.5c-0.1,8.2-0.2,16.5-0.2,24.8h-3.2c-1.7,0-3.2,1.1-3.6,2.8c-0.5,2.3,1.3,4.3,3.5,4.3h3.3
		c0,1.8,0,3.7,0,5.5H6.3c-1.4,0-2.8,1-3,2.4c-0.4,1.9,1.1,3.6,2.9,3.6h7.1c0,1.7,0,3.4,0,5H3.1c-1.4,0-2.8,1-3.1,2.4
		c-0.4,1.9,1.1,3.6,2.9,3.6h10.3c0,0.2,0,0.3,0,0.5c0,6.7,0.1,13.3,0.2,20c0,0.6,0.1,3.9,2.7,6.5c2.6,2.6,5.9,2.7,6.5,2.7
		c0.8-0.1,1.7-0.2,2.5-0.4c3.8-0.6,7-3.3,7.8-7c0.1-0.6,0.2-1.2,0.2-1.7c0-0.1,0-0.1,0-0.2c0.8-8.8,0.6-15.4,0-20.4h9.4
		c1.8,0,3.3-1.7,2.9-3.6C45.3,206.8,44,205.8,42.5,205.8L42.5,205.8z"/>
</g>
</svg>
