<?xml version="1.0" encoding="utf-8"?>
<!-- Generator: Adobe Illustrator 28.1.0, SVG Export Plug-In . SVG Version: 6.00 Build 0)  -->
<svg version="1.1" id="banana" xmlns="http://www.w3.org/2000/svg" xmlns:xlink="http://www.w3.org/1999/xlink" x="0px" y="0px"
	 viewBox="0 0 71 85.4" style="enable-background:new 0 0 71 85.4;" xml:space="preserve">
<style type="text/css">
	.st0{fill:#EEEA59;stroke:#231F20;stroke-width:2;stroke-miterlimit:10;}
	.st1{fill:#27AAE1;}
	.st2{fill:none;stroke:#231F20;stroke-width:2;stroke-miterlimit:10;}
	.st3{fill:#231F20;stroke:#231F20;stroke-width:2;stroke-miterlimit:10;}

  #banana{
     transition: all 0.5s ease;
  }

  #banana:hover{
    transform: rotate(180deg);
  }
</style>
<defs>
	<script>const vectorGraphic = document.querySelector(&apos;#banana&apos;);

function logThisId(){
    console.log(this);
    console.log(&apos;I am a banana&apos;);
}

vectorGraphic.addEventListener(&apos;click&apos;, logThisId);
		</script>
</defs>
<g id="banana">
	<path class="st0" d="M15.5,10.9c0,0,12.3,7.4,20.2,31.9C43,65.7,67.1,69.1,67.1,69.1s8,9.4-2.8,14.2S-0.1,77.2,8.1,17.1
		c0,0,3-4.4-6.9-10.3c0,0,2.3-5.3,4.4-5.7S14.1,6.1,15.5,10.9z"/>
	<path class="st1" d="M8.8,47.9c2.6,8.7,6.9,15.6,12.1,20.9c2.7-2.3,4.4-5.8,4.4-9.8c0-6.8-5.1-12.4-11.4-12.4
		C12.1,46.6,10.4,47.1,8.8,47.9L8.8,47.9z"/>
	<path class="st2" d="M17.1,21.4c0,0,4.6,28.7,20.1,40"/>
	<path class="st2" d="M56.1,74.2c0,0-11.7-1.1-16.3-6.2"/>
	<ellipse class="st3" cx="65.1" cy="75" rx="1.7" ry="2.4"/>
</g>
</svg>
