<?xml version="1.0" encoding="UTF-8"?>
<svg id="Layer_2" data-name="Layer 2" xmlns="http://www.w3.org/2000/svg" viewBox="0 0 231.13 213.71">
  <defs>
    <style>
      .cls-1, .cls-2 {
        fill: #231f20;
      }

      .cls-1, .cls-3 {
        stroke: #231f20;
        stroke-miterlimit: 10;
        stroke-width: 2px;
      }

      .cls-2 {
        stroke-width: 0px;
      }

      .cls-3 {
        fill: #d677b0;
      }
    </style>
  </defs>
  <g id="STAR">
    <path class="cls-1" d="M90,36.33c-.08-1.53-.28-2.68-.65-3.31-.74-1.28-.38.24.65,3.31Z"/>
    <path class="cls-1" d="M44.96,59.19c-1.17-1.08-2.08-1.69-2.62-1.64l2.62,1.64Z"/>
    <path class="cls-2" d="M114.56,99.02c.08-3.2-.5-6.72-1.86-10.22-1.67-4.3-4.2-7.84-7.06-10.27-.05,0-.1,0-.15,0-.44,0-.88.02-1.3.04-.08,0-.17,0-.25.01-.46.03-.91.07-1.35.11-.02,0-.05,0-.07,0-.96.11-1.88.26-2.76.45-.06.01-.12.03-.18.04-.37.08-.73.17-1.09.27-.07.02-.14.04-.21.06-.39.11-.77.23-1.14.35-.01,0-.03,0-.04.01-.79.27-1.54.58-2.26.92-.06.03-.13.06-.19.09-.29.14-.57.28-.85.43-.07.04-.13.07-.2.11-.31.17-.61.34-.9.52-.02.01-.04.02-.06.03-.33.2-.64.41-.95.63-.01,0-.02.02-.04.03-.28.2-.55.4-.81.6-.06.05-.12.09-.18.14-.22.18-.44.36-.65.54-.06.05-.12.1-.17.15-.25.22-.49.44-.72.66-.01.01-.02.02-.03.03-.26.25-.51.5-.75.76-.02.02-.03.03-.05.05-.21.23-.42.46-.63.7-.02.02-.04.04-.06.07-.3,3.52.25,7.5,1.79,11.47,1.54,3.96,3.81,7.27,6.4,9.66.56.01,1.1.01,1.63,0,.03,0,.06,0,.09,0,.49-.02.96-.05,1.43-.09.06,0,.12,0,.18-.02,1.5-.14,2.89-.4,4.2-.77.05-.01.09-.03.14-.04,1.3-.37,2.51-.85,3.64-1.41.03-.02.06-.03.1-.05.36-.18.71-.37,1.05-.57.01,0,.02-.01.03-.02.72-.42,1.4-.87,2.05-1.36.02-.01.03-.02.05-.03.31-.23.61-.47.9-.72.01,0,.02-.02.03-.03.91-.77,1.75-1.6,2.51-2.47,0,0,.01-.02.02-.02.25-.29.5-.58.73-.88ZM105.88,104.17c-2.03.88-5.84-3.4-8.51-9.55s-3.2-11.86-1.17-12.74c2.03-.88,5.84,3.4,8.51,9.55s3.2,11.86,1.17,12.74Z"/>
    <path class="cls-3" d="M124.66,90.8l16.05-61.45c-1.61,6.88-33.48,44.48-35.31,44.48-1.41,0-12.01-27.32-15.4-37.5.58,11.85-6.61,46.9-6.61,46.9l-38.43-24.04c7.42,6.85,25.85,33.54,33.23,44.4,1.95,2.87,3.13,4.63,3.13,4.63,3.44,4.13,21.32,76.13,21.32,76.13l3.44-77.73c13.99-4.36,66.5,29.58,66.5,29.58l-47.92-45.4ZM111.3,102.4s-.02.02-.03.03c-.29.25-.59.49-.9.72-.02.01-.03.02-.05.03-.64.48-1.33.94-2.05,1.36-.01,0-.02.01-.03.02-.34.2-.69.39-1.05.57-.03.02-.06.03-.1.05-1.12.56-2.33,1.04-3.64,1.41-.05.01-.09.03-.14.04-1.3.36-2.7.63-4.2.77-.06,0-.12.01-.18.02-.47.04-.94.07-1.43.09-.03,0-.06,0-.09,0-4.65.15-10.19-.82-16.79-3.4,0,0,.48-9.3,6.11-16.69.27-.35.56-.7.85-1.05,0,0,0,0,0,0,.02-.02.04-.04.06-.06.2-.24.41-.47.63-.7.02-.02.03-.03.05-.05.24-.26.49-.51.75-.76.01-.01.02-.02.03-.03.23-.22.47-.44.72-.66.06-.05.11-.1.17-.15.21-.18.43-.36.65-.54.06-.05.12-.1.18-.14.27-.21.54-.41.81-.6.01,0,.02-.02.04-.03.31-.22.63-.43.95-.63.02-.01.04-.02.06-.03.29-.18.59-.35.9-.52.07-.04.13-.07.2-.11.28-.15.56-.29.85-.43.06-.03.13-.06.19-.09.72-.34,1.47-.64,2.26-.92.01,0,.03,0,.04-.01.37-.13.75-.24,1.14-.35.07-.02.14-.04.21-.06.36-.1.72-.19,1.09-.27.06-.01.12-.03.18-.04.88-.19,1.8-.34,2.76-.45.02,0,.05,0,.07,0,.44-.05.89-.09,1.35-.11.08,0,.17,0,.25-.01.43-.02.86-.04,1.3-.04.05,0,.1,0,.14,0,0,0,0,0,0,0,4.44-.04,9.66.8,15.81,2.87,0,0-.93,10.79-7.63,18.5,0,0-.01.02-.02.02-.76.87-1.59,1.7-2.51,2.47Z"/>
  </g>
</svg>