<?xml version="1.0" encoding="utf-8"?>
<!-- Generator: Adobe Illustrator 28.1.0, SVG Export Plug-In . SVG Version: 6.00 Build 0)  -->
<svg version="1.1" id="ball" xmlns="http://www.w3.org/2000/svg" xmlns:xlink="http://www.w3.org/1999/xlink" x="0px" y="0px"
	 viewBox="0 0 55.2 55.2" style="enable-background:new 0 0 55.2 55.2;" xml:space="preserve">
<style type="text/css">
	.st0{fill:#231F20;stroke:#231F20;stroke-width:0.75;stroke-miterlimit:10;}
	.st1{fill:#FFFFFF;stroke:#231F20;stroke-width:0.75;stroke-miterlimit:10;}
	.st2{fill:#231F20;}
</style>
<defs>
	<script>const vectorGraphic = document.querySelector(&apos;#ball&apos;);

function logThisId(){
    console.log(this);
    console.log(&apos;clicked and got good luck&apos;);
}

vectorGraphic.addEventListener(&apos;click&apos;, logThisId);
		</script>
</defs>
<g id="_8BALL">
	<circle class="st0" cx="27.6" cy="27.6" r="27.2"/>
	<circle class="st1" cx="25.5" cy="30.8" r="11.8"/>
	<path class="st2" d="M20.9,34.7c0-1.8,1.1-3.2,2.8-3.9l0-0.1c-1.6-0.8-2.2-2-2.2-3.3c0-2.3,1.9-3.9,4.4-3.9c2.7,0,4.1,1.8,4.1,3.6
		c0,1.2-0.6,2.6-2.3,3.4v0.1c1.8,0.7,2.8,2,2.8,3.8c0,2.6-2.1,4.3-4.8,4.3C22.7,38.6,20.9,36.8,20.9,34.7L20.9,34.7z M28.5,34.6
		c0-1.8-1.2-2.6-3.1-3.2c-1.6,0.5-2.5,1.6-2.5,3c-0.1,1.5,1,2.8,2.8,2.8S28.5,36.1,28.5,34.6L28.5,34.6z M23.3,27.2
		c0,1.5,1.1,2.3,2.7,2.7c1.2-0.4,2.1-1.3,2.1-2.7c0-1.2-0.7-2.4-2.4-2.4C24.2,24.9,23.3,26,23.3,27.2L23.3,27.2z"/>
</g>
</svg>
