<?xml version="1.0" encoding="UTF-8"?>
<svg id="Layer_2" data-name="Layer 2" xmlns="http://www.w3.org/2000/svg" viewBox="0 0 333.86 331.11">
  <defs>
    <style>
      .cls-1, .cls-2 {
        stroke: #231f20;
        stroke-miterlimit: 10;
        stroke-width: .75px;
      }

      .cls-1, .cls-3 {
        fill: #231f20;
      }

      .cls-2 {
        fill: #fff;
      }

      .cls-3 {
        stroke-width: 0px;
      }
    </style>
  </defs>
  <g id="_8BALL" data-name="8BALL">
    <circle class="cls-1" cx="134.25" cy="70.66" r="27.25"/>
    <circle class="cls-2" cx="132.11" cy="73.87" r="11.81"/>
    <path class="cls-3" d="M127.56,77.69c0-1.85,1.06-3.16,2.8-3.93l-.02-.07c-1.56-.77-2.24-2.03-2.24-3.3,0-2.33,1.89-3.91,4.36-3.91,2.74,0,4.1,1.78,4.1,3.61,0,1.24-.59,2.57-2.32,3.43v.07c1.76.72,2.84,2.01,2.84,3.79,0,2.55-2.11,4.27-4.8,4.27-2.95,0-4.73-1.83-4.73-3.97ZM135.16,77.6c0-1.79-1.19-2.64-3.1-3.21-1.65.5-2.54,1.62-2.54,3.03-.07,1.49,1.02,2.8,2.82,2.8s2.82-1.11,2.82-2.62ZM129.91,70.26c0,1.47,1.06,2.26,2.69,2.71,1.22-.43,2.15-1.33,2.15-2.66,0-1.17-.67-2.39-2.39-2.39-1.58,0-2.45,1.08-2.45,2.35Z"/>
  </g>
</svg>