<?xml version="1.0" encoding="UTF-8"?>
<svg id="Layer_2" data-name="Layer 2" xmlns="http://www.w3.org/2000/svg" viewBox="0 0 612 792">
  <defs>
    <style>
      .cls-1 {
        stroke-linecap: round;
        stroke-width: 2px;
      }

      .cls-1, .cls-2 {
        fill: #58595b;
        stroke: #231f20;
        stroke-miterlimit: 10;
      }

      .cls-3 {
        fill: #232323;
      }

      .cls-3, .cls-4, .cls-5 {
        stroke-width: 0px;
      }

      .cls-4 {
        fill: #111b0f;
      }

      .cls-5 {
        fill: #231f20;
      }

      .cls-2 {
        stroke-width: .75px;
      }
    </style>
  </defs>
  <g id="SWORD">
    <path class="cls-4" d="M275.07,646.05c2.34-1.43,3.9-4,3.9-6.94s-1.49-5.39-3.73-6.84c.45-.77.73-1.65.73-2.6,0-2.84-2.3-5.14-5.14-5.14s-5.14,2.3-5.14,5.14c0,.95.28,1.84.73,2.6-2.24,1.45-3.73,3.97-3.73,6.84s1.56,5.51,3.9,6.94c-1.2,1.13-1.95,2.73-1.95,4.5,0,3.42,2.77,6.19,6.19,6.19s6.19-2.77,6.19-6.19c0-1.78-.75-3.38-1.95-4.5Z"/>
    <path class="cls-2" d="M282.14,541.66s21.37-7.82,13.8-36.02c0,0-2.06-13.99,4.82-22.59s-1.83-18.92-5.96-23.27c0,0-3.67-15.59,1.38-20.87s10.32-19.26,5.04-36.23l-.69-15.59s-3.67,3.44-5.73,13.3-9.86,11.92-11.24,19.72,0,102.5,0,102.5c0,0-.23,4.82-4.59,4.59s-5.5.23-5.5.23v11.09l8.67,3.15Z"/>
    <line class="cls-1" x1="288.44" y1="420.11" x2="288.44" y2="519.85"/>
    <path class="cls-3" d="M264.01,538.33c1.66-1.66,3.96-2.69,6.48-2.69h1.38c1.46.21,3.75.76,5.96,2.32v-99.47l-13.99-10.9v110.92c.06-.06.11-.12.17-.19Z"/>
    <path class="cls-5" d="M290.54,592.08h-10.42c-.29-1.1-.6-2.09-.92-2.98-.16-.46-.43-1.16-.71-2.06h10.45c1.44,0,2.76-.96,3.04-2.37.38-1.89-1.08-3.57-2.91-3.57h-11.68s0,0,0,0c-.14-2.03-.03-3.78.25-5.52h5.69c1.7,0,3.24-1.14,3.59-2.8.48-2.28-1.27-4.31-3.48-4.31h-4.03c.12-.42.24-.83.37-1.28,1.06-3.71,2.52-9.2,4-16.15.08-.73.83-9.07-5.22-13.82-2.37-1.86-4.9-2.47-6.48-2.69h-1.38c-2.52,0-4.82,1.03-6.48,2.69-2.62,2.62-2.69,5.86-2.69,6.48-.13,8.2-.21,16.46-.25,24.76h-3.18c-1.7,0-3.24,1.14-3.59,2.8-.48,2.28,1.27,4.31,3.48,4.31h3.28c0,1.84,0,3.68,0,5.52h-6.93c-1.44,0-2.76.96-3.04,2.37-.38,1.89,1.08,3.57,2.91,3.57h7.07c0,1.68.01,3.36.02,5.04h-10.16c-1.44,0-2.77.97-3.05,2.38-.38,1.9,1.09,3.58,2.92,3.58h10.32c0,.15,0,.31,0,.46.05,6.69.13,13.33.23,19.95,0,.63.09,3.86,2.69,6.48,2.62,2.63,5.86,2.73,6.49,2.74.84-.13,1.68-.25,2.52-.38,3.76-.56,6.95-3.28,7.79-6.98.14-.6.2-1.16.22-1.68,0-.06,0-.12,0-.18.81-8.75.64-15.36-.01-20.41h9.41c1.84,0,3.3-1.68,2.92-3.58-.28-1.41-1.61-2.38-3.05-2.38Z"/>
  </g>
</svg>