<?xml version="1.0" encoding="utf-8"?>
<!-- Generator: Adobe Illustrator 28.1.0, SVG Export Plug-In . SVG Version: 6.00 Build 0)  -->
<svg version="1.1" id="fishbowl" xmlns="http://www.w3.org/2000/svg" xmlns:xlink="http://www.w3.org/1999/xlink" x="0px" y="0px"
	 viewBox="0 0 87.3 83.2" style="enable-background:new 0 0 87.3 83.2;" xml:space="preserve">
<style type="text/css">
	.st0{fill:none;stroke:#231F20;stroke-width:2;stroke-miterlimit:10;}
	.st1{fill:#009444;}
	.st2{fill:#F15A29;stroke:#231F20;stroke-width:0.75;stroke-miterlimit:10;}
	.st3{fill:#231F20;stroke:#231F20;stroke-width:0.75;stroke-miterlimit:10;}

  #fishbowl{
    transition: all 0.5s ease;
  }

  #fishbowl:hover .st2{
    opacity: 0%;
  }

   #fishbowl:hover .st3{
    opacity: 0%;
  }
</style>
<defs>
	<script>const vectorGraphic = document.querySelector(&apos;#fishbowl&apos;);

function logThisId(){
    console.log(this);
    console.log(&apos;i freed the fish&apos;);
}

vectorGraphic.addEventListener(&apos;click&apos;, logThisId);
		</script>
</defs>
<g id="fishbowl">
	<path class="st0" d="M43.7,1C25.2,1,8.7,13.6,3.2,28.9C0.8,35.3,1,40.5,1,41.6c0.8,18.1,18,40.6,42.7,40.6S86.3,64,86.3,41.6
		S67.2,1,43.7,1z M43.7,21.4c-14.1,0-25.5-4.2-25.5-9.4S29.6,1,43.7,1s25.5,5.8,25.5,11S57.7,21.4,43.7,21.4z"/>
	<path class="st0" d="M85.3,35.3c0,0,1.8-0.2-3.8,0.7s-11.3-4.4-18.3-3.6s-10.7,7-18.8,3.6s-7.6-6.1-20.3-3.5S2.8,30.1,2.8,30.1"/>
	<path class="st1" d="M67.9,50.4c-1.7,1.7-3.1,1.6-4,1.2c-0.4-5.3-1.1-8.7-1.8-8.7c-0.9,0-1.7,4.9-2.1,11.9
		c-1.1,2.2-3.6,6.1-6.8,3.5c-4.4-3.5-12.4-4.1-6.9,0.9c4.6,4.1,11.3,2.4,13.5,1.7c0,0.8,0,1.6,0,2.5c0,4.9,0.3,10.7,0.7,15.7
		l3.5-1.6l0,0c0.2-4,0.3-8.3,0.3-12c1.8,0.2,5.4,0.2,7.7-1.5c2.6-2-4.7-2.6-7.7-2.8c0-2.4-0.1-4.6-0.2-6.7c1.7-0.1,5.4-0.4,9.4-0.9
		C80,52.7,71.2,47.2,67.9,50.4L67.9,50.4z"/>
	<path class="st2" d="M26,48.2c0,0,1.1-1.2-1.1-2.1s-10.6-2.3-11.3-6.9s8.2-3.4,8.7-2s1.2,7.6,5,7.8c2.7,0.1,3-1.2,4.7-2.8
		s4.2-1.8,6.3-0.7c2.8,1.5,5.8,4,5.3,6.7c-0.8,4-4.3,11.6-15,5.5c0,0-3.4,5.2-10.4,3.1C18.2,56.8,17,50.7,26,48.2L26,48.2z"/>
	<path class="st2" d="M30.6,49.2c0,0,0.5,5.5-4.4,8.2s3.2,9.1,7.3-1.6"/>
	<circle class="st3" cx="37.4" cy="44.2" r="0.7"/>
</g>
</svg>
