<?xml version="1.0" encoding="UTF-8"?>
<svg id="Layer_2" data-name="Layer 2" xmlns="http://www.w3.org/2000/svg" viewBox="0 0 266.9 245.68">
  <defs>
    <style>
      .cls-1 {
        fill: #67120d;
      }

      .cls-1, .cls-2, .cls-3 {
        stroke: #231f20;
        stroke-miterlimit: 10;
      }

      .cls-2 {
        fill: #231f20;
      }

      .cls-3 {
        fill: #997345;
        stroke-width: .5px;
      }
    </style>
  </defs>
  <g id="BOTTLE">
    <path class="cls-1" d="M154.3,110.42c0-12.72-8-23.66-19.24-28.13V29.39c0-6.31-5.16-11.46-11.46-11.46h0c-6.31,0-11.46,5.16-11.46,11.46v53.08c-11,4.58-18.78,15.4-18.78,27.95v109.64c.07-.08.16-.15.23-.22,0,.07-.02.15-.02.22h0c0,.19.02.38.06.57,0,.05.02.1.04.15.04.15.08.3.14.44.02.04.03.08.05.12.17.39.42.76.74,1.13h0c3.46,3.98,15.23,6.91,29.24,6.91s25.78-2.93,29.24-6.91h0c.32-.37.57-.75.74-1.13.02-.04.03-.08.05-.12.06-.15.11-.29.14-.44.01-.05.03-.1.04-.15.04-.19.06-.38.06-.57h0c0-.08-.01-.15-.02-.22.07.08.16.15.23.22v-109.64Z"/>
    <rect class="cls-3" x="108.99" y="16.29" width="29.66" height="20.02" rx="7.14" ry="7.14"/>
    <path class="cls-2" d="M93.34,133.23s23.94,14.98,60.96,0v36.69s-32.35,16.2-60.96,0v-36.69Z"/>
  </g>
</svg>