<?xml version="1.0" encoding="UTF-8"?>
<svg id="Layer_2" data-name="Layer 2" xmlns="http://www.w3.org/2000/svg" viewBox="0 0 233.89 248.56">
  <defs>
    <style>
      .cls-1 {
        fill: #231f20;
      }

      .cls-1, .cls-2, .cls-3 {
        stroke: #231f20;
        stroke-miterlimit: 10;
      }

      .cls-1, .cls-3 {
        stroke-width: .75px;
      }

      .cls-2 {
        fill: none;
        stroke-width: 2px;
      }

      .cls-4 {
        fill: #009444;
        stroke-width: 0px;
      }

      .cls-3 {
        fill: #f15a29;
      }
    </style>
  </defs>
  <g id="fishbowl">
    <path class="cls-2" d="M108.32,83.69c-18.44,0-34.94,12.62-40.52,27.89-2.33,6.36-2.18,11.57-2.13,12.7.75,18.1,17.96,40.59,42.65,40.59s42.65-18.17,42.65-40.59-19.09-40.59-42.65-40.59ZM108.32,104.1c-14.06,0-25.45-4.21-25.45-9.4s11.4-11.01,25.45-11.01,25.45,5.81,25.45,11.01-11.4,9.4-25.45,9.4Z"/>
    <path class="cls-2" d="M149.99,117.99s1.82-.21-3.83.68-11.31-4.4-18.34-3.64-10.7,7.03-18.84,3.64-7.61-6.09-20.29-3.49-21.29-2.41-21.29-2.41"/>
    <path class="cls-4" d="M132.51,133.09c-1.74,1.67-3.1,1.63-4.03,1.19-.41-5.28-1.09-8.74-1.85-8.74-.91,0-1.69,4.87-2.05,11.87-1.06,2.17-3.55,6.08-6.85,3.46-4.43-3.52-12.38-4.07-6.88.87,4.55,4.08,11.32,2.39,13.54,1.68-.01.81-.02,1.63-.02,2.47,0,4.88.27,10.7.68,15.74l3.53-1.62h0c.16-4,.26-8.29.3-11.96,1.84.17,5.37.22,7.66-1.53,2.58-1.96-4.68-2.64-7.66-2.84-.03-2.39-.1-4.64-.22-6.71,1.72-.12,5.37-.4,9.36-.85,6.66-.74-2.14-6.27-5.5-3.04Z"/>
    <path class="cls-3" d="M90.67,130.93s1.07-1.22-1.07-2.14-10.55-2.29-11.31-6.88,8.25-3.36,8.71-1.99,1.22,7.64,5.04,7.8c2.71.11,3.03-1.17,4.74-2.76s4.24-1.77,6.27-.7c2.84,1.5,5.84,3.97,5.27,6.66-.84,3.97-4.27,11.62-15.02,5.5,0,0-3.4,5.2-10.44,3.06,0,0-1.22-6.11,7.8-8.56Z"/>
    <path class="cls-3" d="M95.25,131.85s.46,5.47-4.43,8.16,3.21,9.13,7.34-1.57"/>
    <circle class="cls-1" cx="102.09" cy="126.92" r=".73"/>
  </g>
</svg>